<svg id="svg8" height="64" viewBox="0 0 16.933333 16.933334" width="64" xmlns="http://www.w3.org/2000/svg" xmlns:cc="http://creativecommons.org/ns#" xmlns:dc="http://purl.org/dc/elements/1.1/" xmlns:inkscape="http://www.inkscape.org/namespaces/inkscape" xmlns:rdf="http://www.w3.org/1999/02/22-rdf-syntax-ns#" xmlns:sodipodi="http://sodipodi.sourceforge.net/DTD/sodipodi-0.dtd" xmlns:svg="http://www.w3.org/2000/svg"><g id="layer1" transform="translate(0 -280.067)"><g id="g24285" fill="#3b3c3d" transform="matrix(.265 0 0 .265 -596.515 -151.829)"><path id="path24277" d="m2286.5469 1658.3622c-3.3019 0-6 2.6982-6 6 0 3.3017 2.6981 6 6 6 3.3018 0 6-2.6983 6-6 0-3.3018-2.6982-6-6-6z" font-variant-ligatures="normal" font-variant-position="normal" font-variant-caps="normal" font-variant-numeric="normal" font-variant-alternates="normal" font-feature-settings="normal" text-indent="0" text-align="start" text-decoration-line="none" text-decoration-style="solid" text-decoration-color="#000000" text-transform="none" text-orientation="mixed" white-space="normal" shape-padding="0" isolation="auto" mix-blend-mode="normal" solid-color="#000000" solid-opacity="1" vector-effect="none"/><path id="path24279" d="m2258.5466 1664.3624c0 1.8507.9303 3.5596 2.4277 5.0019 1.4975 1.4423 3.5782 2.6723 6.1035 3.7012 5.0507 2.0574 11.9031 3.2969 19.4688 3.2969s14.4182-1.2395 19.4687-3.2969c2.5254-1.0289 4.6061-2.2589 6.1036-3.7012 1.4974-1.4423 2.4277-3.1512 2.4277-5.0019s-.9303-3.5616-2.4277-5.0039c-1.4975-1.4425-3.5782-2.6725-6.1036-3.7013-5.0505-2.0574-11.903-3.2948-19.4687-3.2948s-14.4181 1.2374-19.4688 3.2948c-2.5253 1.0288-4.606 2.2588-6.1035 3.7013-1.4974 1.4423-2.4277 3.1532-2.4277 5.0039zm2.002 0c0-1.1865.5814-2.3713 1.8164-3.5606 1.2349-1.1894 3.1082-2.3275 5.4687-3.289 4.721-1.9234 11.3676-3.1486 18.7129-3.1486s13.9919 1.2252 18.7129 3.1486c2.3605.9615 4.2338 2.0996 5.4687 3.289 1.235 1.1893 1.8164 2.3741 1.8164 3.5606 0 1.1864-.5814 2.3691-1.8164 3.5586-1.2349 1.1893-3.1082 2.3294-5.4687 3.291-4.721 1.9232-11.3676 3.1465-18.7129 3.1465s-13.9919-1.2233-18.7129-3.1465c-2.3605-.9616-4.2338-2.1017-5.4687-3.291-1.235-1.1895-1.8164-2.3722-1.8164-3.5586z" font-variant-ligatures="normal" font-variant-position="normal" font-variant-caps="normal" font-variant-numeric="normal" font-variant-alternates="normal" font-feature-settings="normal" text-indent="0" text-align="start" text-decoration-line="none" text-decoration-style="solid" text-decoration-color="#000000" text-transform="none" text-orientation="mixed" white-space="normal" shape-padding="0" isolation="auto" mix-blend-mode="normal" solid-color="#000000" solid-opacity="1" vector-effect="none"/><path id="path24281" d="m2301.1426 1689.6191c1.6121-.9298 2.6028-2.63 3.0651-4.6966s.4378-4.5519.01-7.3392c-.8588-5.5746-3.3625-12.3717-7.3075-19.1976s-8.5857-12.3906-12.9889-15.9208c-2.2016-1.7652-4.3439-3.029-6.3666-3.6624-2.0227-.6333-3.992-.6264-5.6041.3034-1.6121.9299-2.6011 2.6291-3.0634 4.6957-.4622 2.0666-.4378 4.5519-.01 7.3391.8589 5.5746 3.3626 12.3718 7.3076 19.1977s8.5856 12.3905 12.9888 15.9207c2.2016 1.7653 4.3439 3.029 6.3666 3.6624s3.9904.6274 5.6024-.3024zm-1.0027-1.7349c-1.0096.5824-2.3276.6511-4.0032.1264-1.6757-.5247-3.6427-1.6532-5.7099-3.3107-4.1346-3.3148-8.6683-8.7181-12.5079-15.3617-3.8396-6.6437-6.2569-13.2676-7.0634-18.5021-.4032-2.6171-.398-4.8831-.015-6.5951.383-1.7119 1.1016-2.8178 2.1112-3.4002 1.0097-.5822 2.3277-.6509 4.0033-.1264 1.6756.5247 3.6443 1.6523 5.7116 3.3096 4.1345 3.3149 8.6665 8.7192 12.5061 15.3629 3.8396 6.6436 6.2587 13.2665 7.0651 18.5009.4032 2.6173.3963 4.8842.013 6.5962-.383 1.7119-1.1015 2.8178-2.1112 3.4002z" font-variant-ligatures="normal" font-variant-position="normal" font-variant-caps="normal" font-variant-numeric="normal" font-variant-alternates="normal" font-feature-settings="normal" text-indent="0" text-align="start" text-decoration-line="none" text-decoration-style="solid" text-decoration-color="#000000" text-transform="none" text-orientation="mixed" white-space="normal" shape-padding="0" isolation="auto" mix-blend-mode="normal" solid-color="#000000" solid-opacity="1" vector-effect="none"/><path id="path24283" d="m2271.9507 1689.6191c-1.6121-.9299-2.6028-2.6301-3.0652-4.6968-.4623-2.0667-.4387-4.5503-.01-7.3377.8588-5.5748 3.3636-12.3738 7.3086-19.2 3.9451-6.8261 8.5857-12.3909 12.989-15.9213 2.2017-1.7652 4.343-3.0274 6.3657-3.6608 2.0228-.6333 3.9921-.6264 5.6043.3035 1.6121.9298 2.6011 2.6291 3.0634 4.6958.4622 2.0666.4388 4.5503.01 7.3377-.8589 5.5747-3.3626 12.372-7.3077 19.1982-3.945 6.8261-8.5867 12.3926-12.99 15.9229-2.2016 1.7654-4.3431 3.0275-6.3657 3.6609-2.0227.6334-3.9904.6274-5.6025-.3024zm1.0027-1.735c1.0097.5823 2.3267.6528 4.0023.128 1.6757-.5245 3.6437-1.655 5.711-3.3123 4.1346-3.3149 8.6683-8.7185 12.508-15.3624 3.8397-6.6438 6.2561-13.2661 7.0625-18.5007.4032-2.6174.399-4.8851.016-6.5972-.3829-1.712-1.1015-2.8178-2.1111-3.4002-1.0097-.5823-2.3277-.6511-4.0033-.1264-1.6757.5247-3.6454 1.6539-5.7127 3.3115-4.1346 3.3149-8.6657 8.7176-12.5053 15.3615-3.8397 6.6439-6.2588 13.267-7.0653 18.5016-.4032 2.6172-.3973 4.8859-.014 6.598.383 1.7119 1.1025 2.8162 2.1122 3.3986z" font-variant-ligatures="normal" font-variant-position="normal" font-variant-caps="normal" font-variant-numeric="normal" font-variant-alternates="normal" font-feature-settings="normal" text-indent="0" text-align="start" text-decoration-line="none" text-decoration-style="solid" text-decoration-color="#000000" text-transform="none" text-orientation="mixed" white-space="normal" shape-padding="0" isolation="auto" mix-blend-mode="normal" solid-color="#000000" solid-opacity="1" vector-effect="none"/></g></g></svg>