<?xml version="1.0" encoding="UTF-8"?>
<svg id="Layer_2" data-name="Layer 2" xmlns="http://www.w3.org/2000/svg" xmlns:xlink="http://www.w3.org/1999/xlink" viewBox="0 0 551.88 551.92">
  <defs>
    <style>
      .cls-1 {
        fill: url(#linear-gradient);
      }

      .cls-1, .cls-2, .cls-3, .cls-4, .cls-5, .cls-6, .cls-7, .cls-8 {
        stroke-width: 0px;
      }

      .cls-2 {
        fill: #6c5b4a;
      }

      .cls-3 {
        fill: #fff;
      }

      .cls-4 {
        fill: #7ac043;
      }

      .cls-5 {
        fill: url(#radial-gradient);
      }

      .cls-6 {
        fill: #0990c6;
      }

      .cls-7 {
        fill: #40c0fd;
      }

      .cls-8 {
        fill: #3cc3fd;
        opacity: .57;
      }
    </style>
    <radialGradient id="radial-gradient" cx="275.96" cy="293.99" fx="197.79" fy="123.18" r="234.98" gradientUnits="userSpaceOnUse">
      <stop offset=".32" stop-color="#fff"/>
      <stop offset=".4" stop-color="#ddf3fe"/>
      <stop offset=".55" stop-color="#9bddfe"/>
      <stop offset=".68" stop-color="#6bcdfe"/>
      <stop offset=".78" stop-color="#4ec3fe"/>
      <stop offset=".83" stop-color="#43c0fe"/>
    </radialGradient>
    <linearGradient id="linear-gradient" x1="228.22" y1="147.96" x2="383.06" y2="562.7" gradientUnits="userSpaceOnUse">
      <stop offset="0" stop-color="#fff"/>
      <stop offset=".01" stop-color="#f7fbfd"/>
      <stop offset=".04" stop-color="#a4d5e9"/>
      <stop offset=".07" stop-color="#61b7da"/>
      <stop offset=".1" stop-color="#31a2cf"/>
      <stop offset=".11" stop-color="#1494c8"/>
      <stop offset=".13" stop-color="#0990c6"/>
    </linearGradient>
  </defs>
  <circle class="cls-3" cx="275.94" cy="275.96" r="268.14"/>
  <path class="cls-5" d="M519.78,275.96c0,134.66-109.16,243.82-243.82,243.82S32.14,410.62,32.14,275.96c0-87.85,46.47-164.82,116.14-207.76-1.79,20.57-1.09,42.2,5.63,59.12,18.36,46.23,101.74,37.42,101.74,37.42,0,0-6.58,17.49.02,21.95,6.6,4.43,99.55,34.53,122.88,14.73,22.32-18.98,31.79-28.49,32.61-29.27-.5,1.79-11.72,40.37-4.15,62.38,5.36,15.6,41.5-53.84,64.98-103.53,30.05,40.49,47.79,90.64,47.79,144.95Z"/>
  <path class="cls-8" d="M103.3,73.04l8.8,101.23s107.1-244.28,342.58-11l41.08-23.47L352.72,27.56h-167.99l-81.43,45.48Z"/>
  <path class="cls-6" d="M467.37,77.21c-4.23-4.08-8.62-8.04-13.12-11.84-23.52-19.99-50.46-36.06-79.81-47.24C343.85,6.41,310.66,0,275.96,0c-20.22,0-39.91,2.17-58.89,6.29C92.97,33.27,0,143.78,0,275.96c0,152.4,123.56,275.96,275.96,275.96s275.92-123.56,275.92-275.96c0-78.06-32.41-148.56-84.51-198.75ZM275.96,519.81c-134.67,0-243.85-109.17-243.85-243.85,0-116.78,82.17-214.43,191.8-238.27,16.77-3.66,34.16-5.57,52.05-5.57,30.66,0,59.99,5.66,87.04,16.02,25.92,9.9,49.72,24.09,70.52,41.73,3.95,3.37,7.82,6.86,11.57,10.48,46.06,44.35,74.68,106.63,74.68,175.61,0,134.67-109.13,243.85-243.8,243.85Z"/>
  <path class="cls-1" d="M472.07,131.09h0c32.23,43.58,50.31,98.21,47.4,157.21-6.29,127.48-112.1,229.55-239.73,231.49-136.39,2.07-247.64-107.91-247.64-243.83,0-68.28,28.1-130,73.37-174.29-.04-11.76-19.02-8.07-28.57-7.84-3.11.08-10.91,6.21-20.07,14.44C19.27,157.28-2.24,219.18.19,286.2c5.25,144.95,123.98,262.15,268.98,265.64,155.51,3.74,282.71-121.22,282.71-275.88,0-54.04-15.54-104.48-42.4-147.04-8.95-14.17-30.06-12.89-37.41,2.17Z"/>
  <path class="cls-7" d="M459.09,214.62s-132.78-16.87-172.39,7.34c-39.61,24.21-28.61,30.81-68.22,17.61-39.61-13.2-137.18-32.28-205.4,18.34,0,0,83.63-20.54,131.31-13.94s104.17,253.82,104.17,253.82l195.13-99.77,15.41-183.39Z"/>
  <ellipse class="cls-3" cx="278.08" cy="276.98" rx="32.28" ry="35.39" transform="translate(-41.42 504.93) rotate(-80.39)"/>
  <path class="cls-2" d="M375.33,112.96c2.25,1.09,4.39,2.21,6.44,3.42-3.22-1.63-5.67-2.99-6.44-3.42Z"/>
  <path class="cls-2" d="M503.43,275.96c0,1.32,0,2.68-.04,4-.12,6.95-.54,13.86-1.32,20.65l-183.07,16.34s95.14-34.12,105.04-78.68c9.47-42.66,5.36-94.83-42.27-121.89,9.51,4.81,25.93,12.23,26.32,6.37.47-7.06-30.05-46.74-72.32-66.3,7.26,1.98,14.4,4.35,21.35,6.99,24.22,9.2,46.43,22.44,65.8,38.93,3.73,3.14,7.34,6.41,10.83,9.74,42.93,41.38,69.68,99.49,69.68,163.85Z"/>
  <path class="cls-4" d="M503.4,279.96c-2.13,123.79-103.14,223.48-227.44,223.48-14.71,0-29.07-1.4-42.97-4.08,14.52-8.58,31.71-19.95,50.04-34.59,51.36-41.07,27.13-66.77-36.68-85.09-63.82-18.36-89.48-36.68-93.9-63.08-4.39-26.44,3.69-49.88-11.72-60.91-9.36-6.68-56.21-1.63-91.65,3.42-22.94,3.22-41.11,6.44-41.11,6.44,0,0,14.21-6.91,41.96-15.33,12.07-3.69,26.71-7.61,43.86-11.41,56.48-12.46,101.2,4.43,132.76,24.96,31.56,20.53,38.16,27.87,91.69,32.3,40.18,3.3,138.5-9.51,185.16-16.11Z"/>
  <path class="cls-4" d="M467.37,77.21c-.39,7.34-1.51,23.33-4.81,35.64-4.39,16.5-14.83,6.6-29.7-12.65-14.87-19.25-92.43-55.01-111.14-59.43-18.71-4.39-64.36-1.09-22.01,8.81,42.35,9.9,74.57,47.05,74.57,47.05,0,0-24.49-8.27-22.01.82,2.45,9.08,9.98,11.57,34.94,35.01,24.92,23.49,8.77,38.16-16.89,50.62-25.66,12.5-88.78-4.39-88.78-4.39,0,0,17.08-13.04,18.17-22.36,1.09-9.36-23.64-15.99-60.52-12.65-36.88,3.3-47.86-8.27-61.06-27.52-13.2-19.25-7.72-44.02,4.93-74.3,6.25-14.98,20.85-27.1,34-35.56,18.98-4.11,38.66-6.29,58.89-6.29,34.7,0,67.89,6.41,98.48,18.13,29.35,11.18,56.29,27.25,79.81,47.24,4.5,3.8,8.89,7.76,13.12,11.84Z"/>
</svg>